<svg width="158" height="73" viewBox="0 0 158 73" fill="none" xmlns="http://www.w3.org/2000/svg">
<path fill-rule="evenodd" clip-rule="evenodd" d="M65.4834 27H60.0834L54.2154 8.748H59.6514L61.2354 14.76C61.6194 16.272 61.9434 17.64 62.2074 18.864C62.4714 20.064 62.6274 20.892 62.6754 21.348L62.7834 22.032C62.9514 20.592 63.5394 18.168 64.5474 14.76L66.3114 8.748H70.8474L72.5754 14.76C73.0074 16.296 73.3674 17.676 73.6554 18.9C73.9434 20.1 74.1234 20.928 74.1954 21.384L74.3034 22.032C74.4714 20.616 75.0354 18.192 75.9954 14.76L77.6874 8.748H82.8714L77.0394 27H71.6394L70.0554 21.024C69.7194 19.728 69.4194 18.516 69.1554 17.388C68.9154 16.26 68.7594 15.456 68.6874 14.976L68.5794 14.256C68.3394 15.864 67.8354 18.12 67.0674 21.024L65.4834 27ZM90.6353 27H85.3793V8.748H90.6353V27ZM90.1673 1.296C90.7673 1.896 91.0673 2.616 91.0673 3.456C91.0673 4.296 90.7673 5.016 90.1673 5.616C89.5673 6.216 88.8473 6.516 88.0073 6.516C87.1673 6.516 86.4473 6.216 85.8473 5.616C85.2473 5.016 84.9473 4.296 84.9473 3.456C84.9473 2.616 85.2473 1.896 85.8473 1.296C86.4473 0.695996 87.1673 0.395996 88.0073 0.395996C88.8473 0.395996 89.5673 0.695996 90.1673 1.296ZM10.6922 19.152H7.88424V27H2.34023V2.736H10.6922C13.3802 2.736 15.5522 3.492 17.2082 5.004C18.8882 6.516 19.7282 8.436 19.7282 10.764C19.7282 13.428 18.8522 15.492 17.1002 16.956C15.3722 18.42 13.2362 19.152 10.6922 19.152ZM10.0442 7.164H7.88424V14.76H9.72023C12.6482 14.76 14.1122 13.428 14.1122 10.764C14.1122 8.364 12.7562 7.164 10.0442 7.164ZM27.6654 27H22.4094L22.4454 8.748H27.6654V12.132C28.0014 11.076 28.5534 10.236 29.3214 9.612C30.1134 8.964 31.0254 8.64 32.0574 8.64C32.6334 8.64 33.0894 8.68799 33.4254 8.784V13.752C32.8494 13.488 32.1894 13.356 31.4454 13.356C30.3174 13.356 29.4054 13.776 28.7094 14.616C28.0134 15.432 27.6654 16.524 27.6654 17.892V27ZM52.7616 17.784C52.7616 20.544 51.9696 22.824 50.3856 24.624C48.8256 26.4 46.6416 27.288 43.8336 27.288C40.9776 27.288 38.7696 26.436 37.2096 24.732C35.6496 23.004 34.8696 20.796 34.8696 18.108C34.8696 15.3 35.6856 12.996 37.3176 11.196C38.9496 9.372 41.1216 8.46 43.8336 8.46C46.6656 8.46 48.8616 9.336 50.4216 11.088C51.9816 12.84 52.7616 15.072 52.7616 17.784ZM41.2056 14.076C40.6296 15.06 40.3416 16.332 40.3416 17.892C40.3416 19.452 40.6296 20.736 41.2056 21.744C41.8056 22.728 42.6936 23.22 43.8696 23.22C45.0216 23.22 45.8736 22.74 46.4256 21.78C47.0016 20.796 47.2896 19.524 47.2896 17.964C47.2896 14.388 46.1256 12.6 43.7976 12.6C42.6456 12.6 41.7816 13.092 41.2056 14.076ZM95.1485 27H113.185V22.536H101.809L112.753 6.66V2.736H95.3645V7.2H106.021L95.1485 22.932V27ZM1.00047 43L157.001 42.0127L156.994 41.0127L0.994141 42L1.00047 43ZM148 63.5H147.5V64V72V72.5H148H157H157.5V72V64V63.5H157H148ZM148.5 71.5V64.5H156.5V71.5H148.5Z" fill="#0D0D0D"/>
</svg>
